<?xml version="1.0" encoding="UTF-8"?><svg id="a" xmlns="http://www.w3.org/2000/svg" width="444.43" height="512" viewBox="0 0 444.43 512"><path d="M442.59,297.14c-4.44-30.16-21.61-70.38-35.65-97.7-19.21-37.39-58.76-88.78-57.11-125.97.01-.15,0-.29.01-.44,18.98-.9,38.53,4.53,52.48-11.55,20.76-23.95,3.12-66.13-36.63-61.06-24.19,3.07-44.13,31.59-50.17,53.47h-186.81C120.15,25.69,97.5-3.67,64.68.42c-28.12,3.5-41.96,39.99-22.12,61.72,13.77,15.09,33.5,10.08,51.82,10.89v.44c.99,34.52-35.23,84.54-52.48,117.39-14.29,27.21-32.23,65.81-38.28,95.71-9.92,48.94,1.02,93.96,26.72,129.05,21.89,29.91,54.48,52.6,94.08,64.36-7.07,1.56-20.94-2.36-25.75,4.63-2.68,3.88-3.59,26.14.33,27.39h246.88c3.24-.82,2.78-18.59,2.31-21.45-2.33-14.1-17.86-9.09-27.72-10.57,38.8-11.6,71.38-34.33,93.38-64.36,23.88-32.56,35.31-73.7,28.74-118.48Z"/><path d="M131.35,73.03l17.49.33v.11l-.33,340.17c-6.27-1.73-12.12-3.68-17.57-5.84-86.66-34.15-73.64-119.44-44.81-198.46,15.65-42.94,40.88-83.82,44.81-130.13.17-1.9.29-3.82.38-5.74.02-.15.03-.29.03-.44Z" fill="#fff"/><path d="M313.48,407.67c-5.51,2.2-11.42,4.19-17.76,5.97V73.03l7.86.44,9.9.53.39.02c-.86,42.64,25.82,87.79,40.92,127.4,30.61,80.29,49.1,170.25-41.31,206.25Z" fill="#fff"/><polygon points="183.83 74.02 183.5 415.62 156.1 414.63 156.43 73.47 156.43 73.03 168.31 73.47 183.83 74.02" fill="#fff"/><polygon points="218.81 74.02 217.82 415.62 191.09 415.29 191.42 73.47 191.42 73.03 203.3 73.47 218.81 74.02" fill="#fff"/><polygon points="253.14 73.36 253.14 73.47 252.81 415.62 225.41 415.29 226.4 73.47 226.4 73.03 253.14 73.36" fill="#fff"/><path d="M288.12,74.02v340.61c-.41.57-4.37.88-9.2.99-3.8.1-8.12.08-11.69,0-3.2-.06-5.8-.19-6.83-.33l.99-341.82v-.44l11.59.44,15.14.55Z" fill="#fff"/></svg>